<svg xmlns="http://www.w3.org/2000/svg" x="0px" y="0px"
     width="48" height="48"
     viewBox="0 0 48 48"
     style=" fill:#000000;"><path fill="#5ec08f" d="M5.973 26L27.973 26 41.973 42 5.973 42z"></path><path fill="#fff" d="M39.438,42L27.066,28H5.973v2h10.662l-0.079,0.041c0.121,0.24,3.072,5.78,14.897,5.944L36.769,42H39.438z M19.031,30h7.134l3.457,3.911C23.237,33.462,20.233,31.253,19.031,30z"></path><path fill="#607d8b" d="M26.973 8H28.973V28H26.973z"></path><path fill="#ff754c" d="M41.973,16c0,0-1.194,2-3.75,2c-2.556,0-4.12-2-6.562-2c-2.442,0-4.687,2-4.687,2V8c0,0,2.293-2,4.688-2s4.162,2,6.562,2s3.75-2,3.75-2V16z"></path></svg>