<svg xmlns="http://www.w3.org/2000/svg" x="0px" y="0px"
     width="48" height="48"
     viewBox="0 0 48 48"
     style=" fill:#000000;"><path fill="#b57e02" d="M25,39h4c0,0-0.938-4.062-0.938-7.062C28.062,29.701,28,17,28,17L25,39z"></path><path fill="#5ec08f" d="M17,45l2-6h10l2,6c0,0,0,1-1,1s-11,0-12,0S17,45,17,45z"></path><path fill="#dd9f05" d="M24 2A10 10 0 1 0 24 22A10 10 0 1 0 24 2Z"></path><path fill="#dd9f05" d="M22,39c0,0,7-19,10-19c-2,5-3,15-6,19H22z"></path><path fill="#398e5f" d="M29.666 41L29 39 19 39 18.334 41z"></path><path fill="#ffc107" d="M16,14c0-5.523,4.478-10,10-10c2.251,0,4.32,0.754,5.992,2.008C30.168,3.578,27.271,2,24,2c-5.522,0-10,4.477-10,10c0,3.271,1.579,6.168,4.008,7.992C16.753,18.32,16,16.25,16,14z"></path><path fill="#ffc107" d="M13,15c0,0,5,6,6,10s1,6,0,14h6c0,0-1.337-23.799-4.563-22.187C18.729,18.293,16,19,13,15z"></path><path fill="#b57e02" d="M26 12A3 3.75 0 1 0 26 19.5A3 3.75 0 1 0 26 12Z"></path><path fill="#b57e02" d="M27 20c2.457 0 4.156-3.392 5.103-6.011L33 11c0 0-3 6-6 7-2.377.792-5.049-3.194-6.058-4.887C22.397 15.823 23.812 20 27 20zM18.125 12.458c-.002-.003-.003-.006-.005-.009.242.991.661 3.315-.654 3.544-1.018.011-2.321-.576-3.466-2.966l-.992 1.983c.018.022.215.261.531.661 2.733 3.177 5.196 2.555 6.804 1.217C19.364 14.722 18.419 12.987 18.125 12.458z"></path><path fill="#ffe082" d="M34,10c-0.553,0-1,0.447-1,1c0,0-2,9-6,9s-5.208-6.583-7.208-8.583l0,0C19.61,11.171,19.331,11,19,11c-0.553,0-1,0.447-1,1c0,0.091,0.029,0.173,0.052,0.256l-0.031,0.015c0,0,0.02,0.035,0.053,0.095c0.013,0.033,0.034,0.06,0.051,0.091C18.809,13.689,23,21.408,23,26c0,5-4,13-4,13h3c2-3,13-22,13-28C35,10.447,34.553,10,34,10z"></path><path fill="#ffe082" d="M27 13A2 2.5 0 1 0 27 18A2 2.5 0 1 0 27 13Z"></path></svg>