<svg xmlns="http://www.w3.org/2000/svg" x="0px" y="0px"
     width="48" height="48"
     viewBox="0 0 48 48"
     style=" fill:#000000;"><path fill="#b71c1c" d="M0,34.005c0-3.866,3.582-7,8-7s8,3.134,8,7v1.962L0,35.978V34.005z"></path><path fill="#b71c1c" d="M32,33.967c0-3.866,3.582-7,8-7s8,3.134,8,7V35l-16-0.033V33.967z"></path><path fill="#ba6f00" d="M42.001,25.005h-4v3c0,0,0.328,1,1.959,1s2.041-1,2.041-1V25.005z"></path><circle cx="43.5" cy="22.505" r="1.5" fill="#ba6f00"></circle><circle cx="36.5" cy="22.505" r="1.5" fill="#ba6f00"></circle><path fill="#d68000" d="M44,19.221c0-2.206-1.794-2.216-4-2.216s-4,0.01-4,2.216c0,0.347,0,3.436,0,3.784 c0,2.206,1.794,4,4,4s4-1.794,4-4C44,22.658,44,19.569,44,19.221z"></path><path fill="#fb8c00" d="M10.001,25.005h-4v3c0,0,0.328,1,1.959,1s2.041-1,2.041-1V25.005z M11.5,21.005 c-0.828,0-1.5,0.672-1.5,1.5s0.672,1.5,1.5,1.5s1.5-0.672,1.5-1.5S12.328,21.005,11.5,21.005z M4.5,21.005 c-0.828,0-1.5,0.672-1.5,1.5s0.672,1.5,1.5,1.5s1.5-0.672,1.5-1.5S5.328,21.005,4.5,21.005z"></path><path fill="#ffa726" d="M12,19.221c0-2.206-1.794-2.216-4-2.216s-4,0.01-4,2.216c0,0.347,0,3.436,0,3.784 c0,2.206,1.794,4,4,4s4-1.794,4-4C12,22.658,12,19.569,12,19.221z"></path><path fill="#424242" d="M7.781,15.005C5.344,15.224,3,16.935,3,20.579v1.426l1,1v-3l6.31-2.201L12,20.005v3l1-1v-1.203 c0-2.414-0.135-4.205-3-4.797l-0.485-1H7.781z"></path><path fill="#424242" d="M39.781,15.005C37.344,15.224,35,16.935,35,20.579v1.426l1,1v-3l6.31-2.201L44,20.005v3l1-1v-1.203 c0-2.414-0.135-4.205-3-4.797l-0.485-1H39.781z"></path><path fill="#ff9800" d="M32,19.5c0,0.828-0.672,1.5-1.5,1.5c-0.829,0-1.5-0.672-1.5-1.5s0.671-1.5,1.5-1.5 C31.328,18,32,18.672,32,19.5 M19,19.5c0-0.828-0.672-1.5-1.5-1.5S16,18.672,16,19.5s0.672,1.5,1.5,1.5S19,20.328,19,19.5"></path><path fill="#edb405" d="M28,28c0,0,0,4-4,4s-4-4-4-4"></path><path fill="#e53935" d="M27.75,28L27.75,28L24,28.77L20.25,28c0,0-8.25,1.527-8.25,10v1.967h24V38 C36,29.559,27.75,28,27.75,28"></path><path fill="#ff9800" d="M24,32c-4,0-4-4-4-4v-4h8v4C28,28,28,32,24,32z"></path><path fill="#ffb74d" d="M31,15.68c0-5.879-14-3.828-14,0v4.391C17,23.895,20.133,27,24,27c3.866,0,7-3.105,7-6.93V15.68z"></path><path fill="#e53935" d="M24,34c3.059,0,5.578-2.292,5.948-5.25c-0.884-0.398-1.603-0.607-1.954-0.693 C27.963,30.238,26.19,32,24,32s-3.964-1.762-3.994-3.945c-0.353,0.086-1.071,0.293-1.955,0.688C18.417,31.705,20.939,34,24,34z"></path><path fill="#795548" d="M24,8c-4.86,0-8,4.313-8,8.172V18l2,2v-4l9.2-3l2.8,3v4l2-2v-0.809c0-3.218-0.831-6.803-4.8-7.592 L26.399,8H24z"></path><path fill="#784719" d="M26,19c0-0.551,0.448-1,1-1s1,0.449,1,1s-0.448,1-1,1S26,19.551,26,19 M20,19c0,0.551,0.448,1,1,1 s1-0.449,1-1s-0.448-1-1-1S20,18.449,20,19"></path><path fill="#ffcdd2" d="M26.03,39.967c-0.012-0.172-0.021-0.355-0.021-0.559v-2.115c0-0.688,0.07-1.189,0.211-1.506 s0.342-0.465,0.604-0.445h0.035c0.258-0.02,0.459,0.129,0.604,0.445s0.217,0.818,0.217,1.506v2.115 c0,0.204-0.008,0.387-0.02,0.559h1.647c0.021-0.22,0.037-0.448,0.037-0.694V37.44c0-1.133-0.227-1.995-0.68-2.587 s-1.061-0.888-1.822-0.888s-1.368,0.296-1.819,0.888s-0.677,1.454-0.677,2.587v1.834c0,0.246,0.016,0.473,0.037,0.694H26.03z"></path><polygon fill="#ffcdd2" points="20.238,39.967 21.902,39.967 21.902,34.082 18.656,34.662 18.656,35.864 20.238,35.828"></polygon><path fill="#ffcdd2" d="M39.774,34.459c-0.053,0.161-0.085,0.341-0.132,0.509h1.281c0.04-0.183,0.081-0.36,0.126-0.523 c0.209-0.76,0.635-1.552,1.276-2.375v-1.113H38v1.108h2.998C40.474,32.778,40.066,33.576,39.774,34.459z"></path><path fill="#ffcdd2" d="M7.437,32.908c0-0.248,0.066-0.449,0.197-0.602c0.133-0.153,0.289-0.23,0.472-0.23 c0.225,0,0.397,0.086,0.518,0.259c0.12,0.173,0.181,0.398,0.181,0.676c0,0.316-0.061,0.563-0.181,0.739s-0.305,0.264-0.552,0.264 H7.378v1.074h0.693c0.271,0,0.475,0.087,0.613,0.261c0.108,0.137,0.161,0.355,0.185,0.618h1.382 c-0.029-0.297-0.097-0.57-0.236-0.798c-0.176-0.288-0.43-0.5-0.762-0.637c0.29-0.153,0.518-0.367,0.684-0.642 s0.249-0.574,0.249-0.896c0-0.645-0.192-1.144-0.576-1.497s-0.898-0.53-1.543-0.53c-0.566,0-1.042,0.178-1.429,0.534 c-0.385,0.356-0.57,0.815-0.554,1.377l0.01,0.029H7.437z"></path></svg>